<?xml version="1.0" encoding="UTF-8"?>
<svg xmlns="http://www.w3.org/2000/svg" width="512" height="512" viewBox="0 0 64 64" role="img" aria-labelledby="title desc">
  <title id="title">Reprieve — guardian wings</title>
  <desc id="desc">A floating halo above a pair of swept angel wings. Transparent background.</desc>
  <defs>
    <linearGradient id="wing" x1="0" y1="12" x2="0" y2="55" gradientUnits="userSpaceOnUse">
      <stop offset="0" stop-color="#16BBD8"/>
      <stop offset=".32" stop-color="#079CCF"/>
      <stop offset=".65" stop-color="#0877D1"/>
      <stop offset="1" stop-color="#2459CB"/>
    </linearGradient>
    <linearGradient id="halo" x1="25" y1="7" x2="39" y2="14" gradientUnits="userSpaceOnUse">
      <stop offset="0" stop-color="#13B5D4"/>
      <stop offset=".55" stop-color="#089FCE"/>
      <stop offset="1" stop-color="#157AD0"/>
    </linearGradient>
  </defs>
  <ellipse cx="32" cy="10.5" rx="7.5" ry="2.65" fill="none" stroke="url(#halo)" stroke-width="2.4"/>
  <path d="M31 54
C23.6 51.5 17.2 47.4 13.4 41.6
C16.8 43.3 20.8 44.5 24.1 44.6
C16.2 41.8 10.3 36.7 7.8 30.8
C12.2 33.5 16.1 35.2 20.6 35.8
C10.2 31.1 4.1 24.3 4 13.5
C10.6 20.8 17.8 21.1 23.1 25.1
C28.7 29.3 31 34.4 31 41.2Z" fill="url(#wing)"/>
  <path d="M31 54
C23.6 51.5 17.2 47.4 13.4 41.6
C16.8 43.3 20.8 44.5 24.1 44.6
C16.2 41.8 10.3 36.7 7.8 30.8
C12.2 33.5 16.1 35.2 20.6 35.8
C10.2 31.1 4.1 24.3 4 13.5
C10.6 20.8 17.8 21.1 23.1 25.1
C28.7 29.3 31 34.4 31 41.2Z" transform="translate(64 0) scale(-1 1)" fill="url(#wing)"/>
</svg>
